<svg xmlns="http://www.w3.org/2000/svg" viewBox="0 0 512 512"><path d="M485.0504 248.4214L240.44 3.811c-4.3363-4.3363-11.3858-4.3363-15.7221 0s-4.3363 11.3858 0 15.7221l236.7604 236.7385L224.7188 493.031c-4.3362 4.3363-4.3362 11.3858 0 15.7221 2.1796 2.1567 5.0253 3.247 7.872 3.247 2.8468 0 5.6924-1.0893 7.8502-3.247l244.6094-244.6105c4.3363-4.3363 4.3363-11.3848 0-15.721z"/><path d="M284.9148 248.4214L40.3043 3.811c-4.3363-4.3363-11.3858-4.3363-15.7221 0s-4.3363 11.3858 0 15.7221l236.7604 236.7385L24.5832 493.031c-4.3362 4.3363-4.3362 11.3858 0 15.7221 2.1796 2.1567 5.0253 3.247 7.872 3.247 2.8468 0 5.6924-1.0893 7.8502-3.247l244.6094-244.6105c4.3363-4.3363 4.3363-11.3848 0-15.721z"/></svg>
